<svg xmlns="http://www.w3.org/2000/svg" viewBox="0 0 600 400" width="600" height="400">
  <rect width="600" height="400" fill="#0a0a0a"/>
  <g stroke="#ffb84d" stroke-width="1" opacity="0.7" fill="none">
    <line x1="120" y1="80" x2="240" y2="160"/>
    <line x1="240" y1="160" x2="360" y2="120"/>
    <line x1="360" y1="120" x2="460" y2="220"/>
    <line x1="240" y1="160" x2="280" y2="280"/>
    <line x1="280" y1="280" x2="420" y2="320"/>
    <line x1="460" y1="220" x2="420" y2="320"/>
    <line x1="120" y1="80" x2="280" y2="280"/>
  </g>
  <g fill="#ffb84d">
    <circle cx="120" cy="80" r="3"/>
    <circle cx="240" cy="160" r="4"/>
    <circle cx="360" cy="120" r="3"/>
    <circle cx="460" cy="220" r="3"/>
    <circle cx="280" cy="280" r="4"/>
    <circle cx="420" cy="320" r="3"/>
  </g>
  <g fill="#ffffff" opacity="0.5">
    <circle cx="60" cy="350" r="1"/>
    <circle cx="540" cy="60" r="1.5"/>
    <circle cx="500" cy="370" r="1"/>
    <circle cx="80" cy="240" r="1"/>
  </g>
  <g font-family="monospace" font-size="11" fill="#ffb84d" opacity="0.8">
    <text x="20" y="30">// PROJECT 02</text>
    <text x="20" y="380">[CONSTELLATION]</text>
  </g>
  <g stroke="#ffb84d" stroke-width="1" opacity="0.5">
    <path d="M10 10 L30 10 M10 10 L10 30"/>
    <path d="M590 10 L570 10 M590 10 L590 30"/>
    <path d="M10 390 L30 390 M10 390 L10 370"/>
    <path d="M590 390 L570 390 M590 390 L590 370"/>
  </g>
</svg>
