<svg xmlns="http://www.w3.org/2000/svg" viewBox="0 0 640 400" role="img" aria-labelledby="title">
  <title id="title">embeddium — embedding generation desktop app</title>
  <rect width="640" height="400" fill="#05070b"/>
  <path d="M0 50h640M0 100h640M0 150h640M0 200h640M0 250h640M0 300h640M0 350h640M50 0v400M100 0v400M150 0v400M200 0v400M250 0v400M300 0v400M350 0v400M400 0v400M450 0v400M500 0v400M550 0v400M600 0v400" stroke="#f5f5f5" stroke-opacity=".06"/>
  <!-- Text input panel (left) -->
  <rect x="60" y="106" width="160" height="190" fill="#0a0d12" stroke="#f5f5f5" stroke-opacity=".35" stroke-width="2"/>
  <path d="M86 146h110M86 178h84M86 210h118M86 242h68M86 274h100" stroke="#f5f5f5" stroke-opacity=".52" stroke-width="8"/>
  <!-- Arrow -->
  <path d="M236 200h52" stroke="#ffb84d" stroke-width="3.5" fill="none"/>
  <path d="M272 187l16 13-16 13" stroke="#ffb84d" stroke-width="3.5" fill="none" stroke-linecap="round" stroke-linejoin="round"/>
  <!-- Vector space (floating dots connected) -->
  <circle cx="338" cy="152" r="10" fill="none" stroke="#ffb84d" stroke-width="3"/>
  <circle cx="386" cy="210" r="10" fill="none" stroke="#ffb84d" stroke-width="3"/>
  <circle cx="334" cy="258" r="10" fill="none" stroke="#ffb84d" stroke-width="3"/>
  <path d="M344 160l34 42M392 218l-50 34M344 152l42-2" stroke="#f5f5f5" stroke-opacity=".35" stroke-width="2"/>
  <!-- Arrow to DB -->
  <path d="M402 200h56" stroke="#ffb84d" stroke-width="3.5" fill="none"/>
  <path d="M442 187l16 13-16 13" stroke="#ffb84d" stroke-width="3.5" fill="none" stroke-linecap="round" stroke-linejoin="round"/>
  <!-- Vector DB cylinder (right) -->
  <ellipse cx="520" cy="158" rx="52" ry="16" fill="#0a0d12" stroke="#ffb84d" stroke-opacity=".75" stroke-width="3"/>
  <rect x="468" y="158" width="104" height="90" fill="#0a0d12" stroke="#ffb84d" stroke-opacity=".75" stroke-width="3"/>
  <ellipse cx="520" cy="248" rx="52" ry="16" fill="#0a0d12" stroke="#ffb84d" stroke-opacity=".75" stroke-width="3"/>
  <text x="80" y="344" fill="#ffb84d" font-family="monospace" font-size="17" letter-spacing="2">TEXT → VECTORS → DB</text>
</svg>
