<svg xmlns="http://www.w3.org/2000/svg" viewBox="0 0 600 400" width="600" height="400">
  <rect width="600" height="400" fill="#0a0a0a"/>
  <g stroke="#ffb84d" stroke-width="1" fill="none" opacity="0.65">
    <rect x="100" y="100" width="80" height="80"/>
    <rect x="260" y="100" width="80" height="80"/>
    <rect x="420" y="100" width="80" height="80"/>
    <rect x="180" y="220" width="80" height="80"/>
    <rect x="340" y="220" width="80" height="80"/>
    <line x1="180" y1="140" x2="260" y2="140"/>
    <line x1="340" y1="140" x2="420" y2="140"/>
    <line x1="140" y1="180" x2="220" y2="220"/>
    <line x1="300" y1="180" x2="300" y2="220"/>
    <line x1="460" y1="180" x2="380" y2="220"/>
    <line x1="260" y1="260" x2="340" y2="260"/>
  </g>
  <g fill="#ffb84d" opacity="0.85">
    <rect x="135" y="135" width="10" height="10"/>
    <rect x="295" y="135" width="10" height="10"/>
    <rect x="455" y="135" width="10" height="10"/>
    <rect x="215" y="255" width="10" height="10"/>
    <rect x="375" y="255" width="10" height="10"/>
  </g>
  <g font-family="monospace" font-size="11" fill="#ffb84d" opacity="0.8">
    <text x="20" y="30">// PROJECT 05</text>
    <text x="20" y="380">[CIRCUIT]</text>
  </g>
  <g stroke="#ffb84d" stroke-width="1" opacity="0.5">
    <path d="M10 10 L30 10 M10 10 L10 30"/>
    <path d="M590 10 L570 10 M590 10 L590 30"/>
    <path d="M10 390 L30 390 M10 390 L10 370"/>
    <path d="M590 390 L570 390 M590 390 L590 370"/>
  </g>
</svg>
