<svg xmlns="http://www.w3.org/2000/svg" viewBox="0 0 640 400" role="img" aria-labelledby="title">
  <title id="title">bits by anish reddy — fundamentals curriculum</title>
  <rect width="640" height="400" fill="#05070b"/>
  <path d="M0 50h640M0 100h640M0 150h640M0 200h640M0 250h640M0 300h640M0 350h640M50 0v400M100 0v400M150 0v400M200 0v400M250 0v400M300 0v400M350 0v400M400 0v400M450 0v400M500 0v400M550 0v400M600 0v400" stroke="#f5f5f5" stroke-opacity=".06"/>
  <!-- Page stack (back to front), shorter so label clears below -->
  <rect x="252" y="64" width="210" height="210" fill="#090c11" stroke="#f5f5f5" stroke-opacity=".1" stroke-width="2"/>
  <rect x="236" y="78" width="210" height="210" fill="#090c11" stroke="#f5f5f5" stroke-opacity=".18" stroke-width="2"/>
  <!-- Front page (amber border) -->
  <rect x="220" y="92" width="210" height="210" fill="#0a0d12" stroke="#ffb84d" stroke-width="3"/>
  <!-- BIT header -->
  <text x="240" y="128" fill="#ffb84d" font-family="monospace" font-size="15" letter-spacing="3">BIT 001</text>
  <path d="M240 136h170" stroke="#ffb84d" stroke-opacity=".45" stroke-width="1.5"/>
  <!-- Body content lines -->
  <path d="M240 162h148M240 188h112M240 214h154M240 240h92M240 266h136" stroke="#f5f5f5" stroke-opacity=".34" stroke-width="7"/>
  <!-- More indicator dots (right of stack) -->
  <circle cx="468" cy="200" r="5" fill="#ffb84d" fill-opacity=".65"/>
  <circle cx="486" cy="200" r="5" fill="#ffb84d" fill-opacity=".4"/>
  <circle cx="504" cy="200" r="5" fill="#ffb84d" fill-opacity=".22"/>
  <!-- Label sits clear below the stack (front page bottom = y 302) -->
  <text x="148" y="348" fill="#ffb84d" font-family="monospace" font-size="17" letter-spacing="2">ONE PAGE · ONE ATOMIC TOPIC</text>
</svg>
