<svg xmlns="http://www.w3.org/2000/svg" viewBox="0 0 600 400" width="600" height="400">
  <rect width="600" height="400" fill="#0a0a0a"/>
  <g stroke="#ffb84d" stroke-width="1" fill="none" opacity="0.55">
    <circle cx="300" cy="210" r="40"/>
    <circle cx="300" cy="210" r="80"/>
    <circle cx="300" cy="210" r="120"/>
    <circle cx="300" cy="210" r="160"/>
    <line x1="140" y1="210" x2="460" y2="210"/>
    <line x1="300" y1="50" x2="300" y2="370"/>
    <line x1="186" y1="96" x2="414" y2="324"/>
    <line x1="414" y1="96" x2="186" y2="324"/>
  </g>
  <path d="M300 210 L420 130 A 145 145 0 0 0 300 65 Z" fill="#ffb84d" opacity="0.18"/>
  <line x1="300" y1="210" x2="420" y2="130" stroke="#ffb84d" stroke-width="1.5"/>
  <g fill="#ffb84d">
    <circle cx="380" cy="180" r="2.5"/>
    <circle cx="240" cy="270" r="2"/>
    <circle cx="350" cy="290" r="2.5"/>
  </g>
  <g font-family="monospace" font-size="11" fill="#ffb84d" opacity="0.8">
    <text x="20" y="30">// PROJECT 03</text>
    <text x="20" y="380">[RADAR-SWEEP]</text>
  </g>
  <g stroke="#ffb84d" stroke-width="1" opacity="0.5">
    <path d="M10 10 L30 10 M10 10 L10 30"/>
    <path d="M590 10 L570 10 M590 10 L590 30"/>
    <path d="M10 390 L30 390 M10 390 L10 370"/>
    <path d="M590 390 L570 390 M590 390 L590 370"/>
  </g>
</svg>
