<svg xmlns="http://www.w3.org/2000/svg" viewBox="0 0 600 400" width="600" height="400">
  <rect width="600" height="400" fill="#0a0a0a"/>
  <g stroke="#ffb84d" stroke-width="1.2" fill="none" opacity="0.85">
    <path d="M40 200 Q 80 130 120 200 T 200 200 T 280 200 T 360 200 T 440 200 T 520 200 T 560 200"/>
    <path d="M40 220 Q 100 280 160 220 T 280 220 T 400 220 T 520 220 T 560 220" opacity="0.6"/>
  </g>
  <g stroke="#ffb84d" stroke-width="0.5" opacity="0.3">
    <line x1="40" y1="120" x2="560" y2="120"/>
    <line x1="40" y1="160" x2="560" y2="160"/>
    <line x1="40" y1="200" x2="560" y2="200"/>
    <line x1="40" y1="240" x2="560" y2="240"/>
    <line x1="40" y1="280" x2="560" y2="280"/>
    <line x1="100" y1="100" x2="100" y2="300"/>
    <line x1="200" y1="100" x2="200" y2="300"/>
    <line x1="300" y1="100" x2="300" y2="300"/>
    <line x1="400" y1="100" x2="400" y2="300"/>
    <line x1="500" y1="100" x2="500" y2="300"/>
  </g>
  <g font-family="monospace" font-size="11" fill="#ffb84d" opacity="0.8">
    <text x="20" y="30">// PROJECT 06</text>
    <text x="20" y="380">[SPECTRUM]</text>
  </g>
  <g stroke="#ffb84d" stroke-width="1" opacity="0.5">
    <path d="M10 10 L30 10 M10 10 L10 30"/>
    <path d="M590 10 L570 10 M590 10 L590 30"/>
    <path d="M10 390 L30 390 M10 390 L10 370"/>
    <path d="M590 390 L570 390 M590 390 L590 370"/>
  </g>
</svg>
