<svg xmlns="http://www.w3.org/2000/svg" viewBox="0 0 640 400" role="img" aria-labelledby="title desc">
  <title id="title">AI engineers handbook thumbnail</title>
  <desc id="desc">Retro terminal diagram of an open curriculum book and connected AI systems.</desc>
  <rect width="640" height="400" fill="#05070b"/>
  <path d="M0 64h640M0 128h640M0 192h640M0 256h640M0 320h640M80 0v400M160 0v400M240 0v400M320 0v400M400 0v400M480 0v400M560 0v400" stroke="#ffb84d" stroke-opacity=".08"/>
  <rect x="96" y="82" width="210" height="236" fill="#0a0d12" stroke="#ffb84d" stroke-opacity=".8"/>
  <path d="M128 124h146M128 158h116M128 192h146M128 226h92M128 260h128" stroke="#f5f5f5" stroke-opacity=".72" stroke-width="8"/>
  <path d="M306 82c44 10 82 28 114 56v236c-32-28-70-46-114-56z" fill="#080b10" stroke="#ffb84d" stroke-opacity=".48"/>
  <circle cx="474" cy="132" r="28" fill="none" stroke="#ffb84d" stroke-width="4"/>
  <circle cx="520" cy="218" r="34" fill="none" stroke="#f5f5f5" stroke-opacity=".5" stroke-width="4"/>
  <circle cx="432" cy="274" r="24" fill="none" stroke="#ffb84d" stroke-opacity=".72" stroke-width="4"/>
  <path d="M492 154l18 38M492 236l-40 25M452 132l-132 64" stroke="#ffb84d" stroke-opacity=".6" stroke-width="3"/>
  <text x="96" y="356" fill="#ffb84d" font-family="monospace" font-size="22" letter-spacing="4">AI HANDBOOK</text>
</svg>
