<svg xmlns="http://www.w3.org/2000/svg" viewBox="0 0 600 400" width="600" height="400">
  <rect width="600" height="400" fill="#0a0a0a"/>
  <g fill="none" stroke="#ffb84d" stroke-width="1" opacity="0.85">
    <ellipse cx="300" cy="200" rx="220" ry="60"/>
    <ellipse cx="300" cy="200" rx="170" ry="45" transform="rotate(20 300 200)"/>
    <ellipse cx="300" cy="200" rx="120" ry="30" transform="rotate(-15 300 200)"/>
    <circle cx="300" cy="200" r="40" fill="#1a1208"/>
  </g>
  <g fill="#ffffff" opacity="0.6">
    <circle cx="80" cy="60" r="1.5"/>
    <circle cx="520" cy="90" r="1"/>
    <circle cx="150" cy="320" r="1.5"/>
    <circle cx="480" cy="300" r="1"/>
    <circle cx="60" cy="200" r="1"/>
  </g>
  <g font-family="monospace" font-size="11" fill="#ffb84d" opacity="0.8">
    <text x="20" y="30">// PROJECT 01</text>
    <text x="20" y="380">[ORBITAL]</text>
  </g>
  <g stroke="#ffb84d" stroke-width="1" opacity="0.5">
    <path d="M10 10 L30 10 M10 10 L10 30"/>
    <path d="M590 10 L570 10 M590 10 L590 30"/>
    <path d="M10 390 L30 390 M10 390 L10 370"/>
    <path d="M590 390 L570 390 M590 390 L590 370"/>
  </g>
</svg>
