<svg xmlns="http://www.w3.org/2000/svg" viewBox="0 0 400 400" width="400" height="400">
  <rect width="400" height="400" fill="#0a0a0a"/>

  <!-- Trophy/medal -->
  <g fill="none" stroke="#ffb84d" stroke-width="1.5" opacity="0.9">
    <circle cx="200" cy="180" r="70"/>
    <circle cx="200" cy="180" r="55"/>
    <path d="M200 110 v-20 M170 105 l-10 -15 M230 105 l10 -15"/>
    <path d="M170 245 l-15 60 h90 l-15 -60"/>
    <path d="M155 305 l-10 25 h110 l-10 -25"/>
  </g>
  <g fill="#ffb84d" opacity="0.85">
    <text x="200" y="190" font-family="monospace" font-size="40" text-anchor="middle" font-weight="bold">★</text>
  </g>

  <!-- Rays -->
  <g stroke="#ffb84d" stroke-width="0.7" opacity="0.4">
    <line x1="200" y1="80" x2="200" y2="50"/>
    <line x1="120" y1="180" x2="90" y2="180"/>
    <line x1="280" y1="180" x2="310" y2="180"/>
    <line x1="145" y1="125" x2="123" y2="103"/>
    <line x1="255" y1="125" x2="277" y2="103"/>
  </g>

  <g font-family="monospace" font-size="9" fill="#ffb84d" opacity="0.85">
    <text x="14" y="22">// LOG-002</text>
    <text x="14" y="385">[ACCOLADE]</text>
  </g>

  <rect x="6" y="6" width="388" height="388" fill="none" stroke="#ffb84d" stroke-width="0.8" opacity="0.4"/>
</svg>
