<svg xmlns="http://www.w3.org/2000/svg" viewBox="0 0 400 400" width="400" height="400">
  <rect width="400" height="400" fill="#0a0a0a"/>

  <!-- Crowd silhouettes -->
  <g fill="#ffb84d" opacity="0.85">
    <path d="M70 280 q0 -40 25 -40 q25 0 25 40 v60 h-50 z"/>
    <circle cx="95" cy="225" r="18"/>
    <path d="M125 290 q0 -45 28 -45 q28 0 28 45 v50 h-56 z"/>
    <circle cx="153" cy="230" r="20"/>
    <path d="M185 280 q0 -40 25 -40 q25 0 25 40 v60 h-50 z"/>
    <circle cx="210" cy="225" r="18"/>
    <path d="M240 290 q0 -45 28 -45 q28 0 28 45 v50 h-56 z"/>
    <circle cx="268" cy="230" r="20"/>
    <path d="M300 280 q0 -40 25 -40 q25 0 25 40 v60 h-50 z"/>
    <circle cx="325" cy="225" r="18"/>
  </g>

  <!-- Lights -->
  <g fill="#ffb84d" opacity="0.5">
    <circle cx="80" cy="80" r="3"/>
    <circle cx="160" cy="60" r="4"/>
    <circle cx="240" cy="90" r="3"/>
    <circle cx="320" cy="70" r="4"/>
  </g>
  <g stroke="#ffb84d" stroke-width="0.6" opacity="0.35">
    <line x1="80" y1="80" x2="80" y2="160"/>
    <line x1="160" y1="60" x2="160" y2="160"/>
    <line x1="240" y1="90" x2="240" y2="160"/>
    <line x1="320" y1="70" x2="320" y2="160"/>
  </g>

  <g font-family="monospace" font-size="9" fill="#ffb84d" opacity="0.85">
    <text x="14" y="22">// LOG-001</text>
    <text x="14" y="385">[CROWD]</text>
  </g>

  <!-- Frame -->
  <rect x="6" y="6" width="388" height="388" fill="none" stroke="#ffb84d" stroke-width="0.8" opacity="0.4"/>
</svg>
